<?xml version="1.0" encoding="UTF-8" standalone="no"?>
<!-- Created with Inkscape (http://www.inkscape.org/) -->

<svg
   version="1.1"
   id="svg2"
   xml:space="preserve"
   width="257.33334"
   height="257.33334"
   viewBox="0 0 257.33334 257.33334"
   sodipodi:docname="HMS.eps"
   xmlns:inkscape="http://www.inkscape.org/namespaces/inkscape"
   xmlns:sodipodi="http://sodipodi.sourceforge.net/DTD/sodipodi-0.dtd"
   xmlns="http://www.w3.org/2000/svg"
   xmlns:svg="http://www.w3.org/2000/svg"><defs
     id="defs6" /><sodipodi:namedview
     id="namedview4"
     pagecolor="#ffffff"
     bordercolor="#666666"
     borderopacity="1.0"
     inkscape:pageshadow="2"
     inkscape:pageopacity="0.0"
     inkscape:pagecheckerboard="0" /><g
     id="g8"
     inkscape:groupmode="layer"
     inkscape:label="ink_ext_XXXXXX"
     transform="matrix(1.3333333,0,0,-1.3333333,0,257.33333)"><g
       id="g10"
       transform="scale(0.1)"><path
         d="M 0.0585938,1927.5 H 1927.5 V 0.0585938 H 0.0585938 V 1927.5"
         style="fill:#ffffff;fill-opacity:1;fill-rule:evenodd;stroke:none"
         id="path12" /><path
         d="m 1000.86,1699.26 h 490.32 L 1302.54,1208.94 964.141,966.301 812.219,1208.94 1000.86,1699.26"
         style="fill:#ed1c24;fill-opacity:1;fill-rule:evenodd;stroke:none"
         id="path14" /><path
         d="m 624.301,718.621 h 147.597 l 38.161,99.359 59.039,-99.359 136.082,99.359 -38.16,-99.359 h 147.6 L 926.699,228.301 h -490.32 l 187.922,490.32"
         style="fill:#ed1c24;fill-opacity:1;fill-rule:evenodd;stroke:none"
         id="path16" /><path
         d="m 321.898,1208.94 h 196.563 l -72,-186.48 h 98.637 l 71.281,186.48 h 195.84 L 624.301,718.621 h -195.84 l 71.277,185.758 H 401.82 l -72,-185.758 H 133.98 l 187.918,490.319"
         style="fill:#485683;fill-opacity:1;fill-rule:evenodd;stroke:none"
         id="path18" /><path
         d="m 1302.54,1208.94 h 490.32 l -52.56,-137.52 h -295.2 l -18.72,-48.96 h 295.2 L 1604.94,718.621 h -490.32 l 52.56,137.52 h 295.92 l 18.72,48.957 H 1185.9 l 116.64,303.842"
         style="fill:#485683;fill-opacity:1;fill-rule:evenodd;stroke:none"
         id="path20" /></g></g></svg>
